<?xml version="1.0" standalone="no"?>
<!DOCTYPE svg PUBLIC "-//W3C//DTD SVG 20010904//EN"
 "http://www.w3.org/TR/2001/REC-SVG-20010904/DTD/svg10.dtd">
<svg version="1.0" xmlns="http://www.w3.org/2000/svg"
 width="294.000000pt" height="294.000000pt" viewBox="0 0 294.000000 294.000000"
 preserveAspectRatio="xMidYMid meet">
<metadata>
Created by potrace 1.11, written by Peter Selinger 2001-2013
</metadata>
<g transform="translate(0.000000,294.000000) scale(0.100000,-0.100000)"
fill="#000000" stroke="none">
<path d="M1850 1835 l0 -1085 164 0 164 0 1 503 c0 276 0 509 0 517 1 13 48
15 363 15 l363 0 3 153 3 152 -366 0 -365 0 -1 48 c0 58 0 441 0 462 1 13 49
15 376 14 206 0 375 2 376 5 3 20 4 269 1 284 -4 16 -38 17 -543 17 l-539 0 0
-1085z"/>
<path d="M538 2149 c-162 -25 -307 -122 -404 -271 -92 -139 -129 -276 -127
-466 4 -427 300 -728 685 -698 44 3 84 9 89 12 5 3 17 7 26 9 22 4 132 53 147
66 45 36 116 89 121 89 3 0 3 -69 1 -152 -6 -212 -35 -300 -120 -375 -56 -49
-130 -74 -222 -74 -171 1 -291 79 -334 219 l-18 57 -156 3 -156 3 0 -28 c0
-44 34 -151 70 -223 41 -81 151 -193 235 -237 105 -55 202 -76 350 -76 104 0
146 4 210 22 258 72 421 274 451 559 4 37 7 397 8 800 l1 732 -157 0 c-180 0
-160 12 -160 -97 l0 -53 -51 45 c-63 55 -164 108 -237 125 -64 15 -186 19
-252 9z m292 -295 c78 -23 180 -118 217 -203 45 -104 53 -270 19 -383 -47
-157 -172 -262 -325 -272 -199 -14 -343 94 -397 297 -16 62 -15 228 3 287 35
118 102 208 187 252 79 41 200 50 296 22z"/>
</g>
</svg>
